<mxfile host="app.diagrams.net" modified="2021-06-14T21:54:19.592Z" agent="5.0 (Windows NT 10.0; Win64; x64) AppleWebKit/537.36 (KHTML, like Gecko) Chrome/91.0.4472.77 Safari/537.36" etag="RF8VkdoPera5RPJWDjJz" version="14.7.7" type="github">
  <diagram id="tnWqJX780dG6p6c5vF5_" name="Page-1">
    <mxGraphModel dx="782" dy="486" grid="1" gridSize="10" guides="1" tooltips="1" connect="1" arrows="1" fold="1" page="1" pageScale="1" pageWidth="827" pageHeight="1169" math="0" shadow="0">
      <root>
        <mxCell id="0" />
        <mxCell id="1" parent="0" />
        <mxCell id="v2xxQM3PYK4Z-_NolJKh-1" value="전반적인 실행 흐름도" style="swimlane;fontSize=15;startSize=34;" parent="1" vertex="1">
          <mxGeometry x="27" width="800" height="1280" as="geometry" />
        </mxCell>
        <mxCell id="v2xxQM3PYK4Z-_NolJKh-11" value="Apache Server" style="swimlane;fontSize=14;startSize=30;spacing=2;" parent="v2xxQM3PYK4Z-_NolJKh-1" vertex="1">
          <mxGeometry x="280" y="34" width="260" height="1246" as="geometry" />
        </mxCell>
        <mxCell id="v2xxQM3PYK4Z-_NolJKh-12" value="&lt;p style=&quot;line-height: 150%&quot;&gt;부팅 시 자동 실행, CGI 허용.&lt;/p&gt;" style="rounded=1;whiteSpace=wrap;html=1;fontSize=12;spacing=2;" parent="v2xxQM3PYK4Z-_NolJKh-11" vertex="1">
          <mxGeometry x="50" y="50" width="160" height="60" as="geometry" />
        </mxCell>
        <mxCell id="teTgMuj66uehlwTVFIN7-17" value="&lt;p style=&quot;line-height: 140%&quot;&gt;측정 값과 새 상태로 lightSetting.json과 waterSetting.json 업데이트&lt;/p&gt;" style="rounded=1;whiteSpace=wrap;html=1;" parent="v2xxQM3PYK4Z-_NolJKh-11" vertex="1">
          <mxGeometry x="48" y="764" width="160" height="71" as="geometry" />
        </mxCell>
        <mxCell id="teTgMuj66uehlwTVFIN7-20" value="&lt;p style=&quot;line-height: 140%&quot;&gt;80 Port Listen, GET METHOD 이용 가능.&lt;br&gt;&lt;/p&gt;" style="rounded=1;whiteSpace=wrap;html=1;fontSize=12;" parent="v2xxQM3PYK4Z-_NolJKh-11" vertex="1">
          <mxGeometry x="50" y="150" width="160" height="70" as="geometry" />
        </mxCell>
        <mxCell id="teTgMuj66uehlwTVFIN7-21" value="" style="endArrow=classic;html=1;fontSize=13;entryX=0.5;entryY=0;entryDx=0;entryDy=0;exitX=0.5;exitY=1;exitDx=0;exitDy=0;" parent="v2xxQM3PYK4Z-_NolJKh-11" source="v2xxQM3PYK4Z-_NolJKh-12" target="teTgMuj66uehlwTVFIN7-20" edge="1">
          <mxGeometry width="50" height="50" relative="1" as="geometry">
            <mxPoint x="40" y="206" as="sourcePoint" />
            <mxPoint x="90" y="156" as="targetPoint" />
          </mxGeometry>
        </mxCell>
        <mxCell id="teTgMuj66uehlwTVFIN7-27" value="&lt;p style=&quot;line-height: 140%&quot;&gt;기존 설정이 lightSetting.json과 waterSetting.json 형태로 존재&lt;br&gt;&lt;/p&gt;" style="rounded=1;whiteSpace=wrap;html=1;fontSize=12;" parent="v2xxQM3PYK4Z-_NolJKh-11" vertex="1">
          <mxGeometry x="50" y="266" width="160" height="74" as="geometry" />
        </mxCell>
        <mxCell id="teTgMuj66uehlwTVFIN7-28" value="" style="endArrow=classic;html=1;fontSize=13;entryX=0.5;entryY=0;entryDx=0;entryDy=0;exitX=0.5;exitY=1;exitDx=0;exitDy=0;" parent="v2xxQM3PYK4Z-_NolJKh-11" source="teTgMuj66uehlwTVFIN7-20" target="teTgMuj66uehlwTVFIN7-27" edge="1">
          <mxGeometry width="50" height="50" relative="1" as="geometry">
            <mxPoint x="30" y="296" as="sourcePoint" />
            <mxPoint x="80" y="246" as="targetPoint" />
          </mxGeometry>
        </mxCell>
        <mxCell id="teTgMuj66uehlwTVFIN7-32" value="&lt;p style=&quot;line-height: 140%&quot;&gt;*Setting.json에 대한 GET Request가 있을 시 이를 반환&amp;nbsp;&lt;/p&gt;" style="rounded=1;whiteSpace=wrap;html=1;fontSize=12;" parent="v2xxQM3PYK4Z-_NolJKh-11" vertex="1">
          <mxGeometry x="48" y="886" width="160" height="72" as="geometry" />
        </mxCell>
        <mxCell id="N0FYi-gbG7OxnuEO2crS-6" value="" style="endArrow=classic;html=1;entryX=0.5;entryY=0;entryDx=0;entryDy=0;exitX=0.5;exitY=1;exitDx=0;exitDy=0;" edge="1" parent="v2xxQM3PYK4Z-_NolJKh-11" source="teTgMuj66uehlwTVFIN7-27" target="teTgMuj66uehlwTVFIN7-17">
          <mxGeometry width="50" height="50" relative="1" as="geometry">
            <mxPoint x="140" y="666" as="sourcePoint" />
            <mxPoint x="190" y="616" as="targetPoint" />
          </mxGeometry>
        </mxCell>
        <mxCell id="N0FYi-gbG7OxnuEO2crS-7" value="" style="endArrow=classic;html=1;entryX=0.5;entryY=0;entryDx=0;entryDy=0;exitX=0.5;exitY=1;exitDx=0;exitDy=0;" edge="1" parent="v2xxQM3PYK4Z-_NolJKh-11" source="teTgMuj66uehlwTVFIN7-17" target="teTgMuj66uehlwTVFIN7-32">
          <mxGeometry width="50" height="50" relative="1" as="geometry">
            <mxPoint x="80" y="856" as="sourcePoint" />
            <mxPoint x="130" y="806" as="targetPoint" />
          </mxGeometry>
        </mxCell>
        <mxCell id="N0FYi-gbG7OxnuEO2crS-11" value="&lt;p style=&quot;line-height: 140%&quot;&gt;수신 내용대로, *Setting.json 업데이트&lt;/p&gt;" style="rounded=1;whiteSpace=wrap;html=1;fontSize=12;" vertex="1" parent="v2xxQM3PYK4Z-_NolJKh-11">
          <mxGeometry x="50" y="1133" width="160" height="70" as="geometry" />
        </mxCell>
        <mxCell id="N0FYi-gbG7OxnuEO2crS-15" value="" style="endArrow=classic;html=1;entryX=0.5;entryY=0;entryDx=0;entryDy=0;exitX=0.5;exitY=1;exitDx=0;exitDy=0;" edge="1" parent="v2xxQM3PYK4Z-_NolJKh-11" source="teTgMuj66uehlwTVFIN7-32" target="N0FYi-gbG7OxnuEO2crS-11">
          <mxGeometry width="50" height="50" relative="1" as="geometry">
            <mxPoint x="100" y="1156" as="sourcePoint" />
            <mxPoint x="150" y="1106" as="targetPoint" />
          </mxGeometry>
        </mxCell>
        <mxCell id="N0FYi-gbG7OxnuEO2crS-2" value="" style="endArrow=classic;startArrow=classic;html=1;entryX=0;entryY=0.5;entryDx=0;entryDy=0;exitX=1;exitY=0.5;exitDx=0;exitDy=0;" edge="1" parent="v2xxQM3PYK4Z-_NolJKh-1" source="teTgMuj66uehlwTVFIN7-32" target="N0FYi-gbG7OxnuEO2crS-1">
          <mxGeometry width="50" height="50" relative="1" as="geometry">
            <mxPoint x="470" y="490" as="sourcePoint" />
            <mxPoint x="520" y="440" as="targetPoint" />
          </mxGeometry>
        </mxCell>
        <mxCell id="v2xxQM3PYK4Z-_NolJKh-7" value="Python" style="swimlane;startSize=30;fontSize=14;" parent="v2xxQM3PYK4Z-_NolJKh-1" vertex="1">
          <mxGeometry y="34" width="280" height="1246" as="geometry" />
        </mxCell>
        <mxCell id="v2xxQM3PYK4Z-_NolJKh-10" value="main.py 실행" style="rounded=1;whiteSpace=wrap;html=1;" parent="v2xxQM3PYK4Z-_NolJKh-7" vertex="1">
          <mxGeometry x="63" y="50" width="160" height="60" as="geometry" />
        </mxCell>
        <mxCell id="v2xxQM3PYK4Z-_NolJKh-13" value="&lt;p style=&quot;line-height: 140%&quot;&gt;findIP() 실행, Bridge의 IP 주소 탐색.&lt;br&gt;&lt;/p&gt;" style="rounded=1;whiteSpace=wrap;html=1;fontSize=12;" parent="v2xxQM3PYK4Z-_NolJKh-7" vertex="1">
          <mxGeometry x="63" y="150" width="160" height="70" as="geometry" />
        </mxCell>
        <mxCell id="v2xxQM3PYK4Z-_NolJKh-14" value="" style="endArrow=classic;html=1;fontSize=12;exitX=0.5;exitY=1;exitDx=0;exitDy=0;entryX=0.5;entryY=0;entryDx=0;entryDy=0;" parent="v2xxQM3PYK4Z-_NolJKh-7" source="v2xxQM3PYK4Z-_NolJKh-10" target="v2xxQM3PYK4Z-_NolJKh-13" edge="1">
          <mxGeometry width="50" height="50" relative="1" as="geometry">
            <mxPoint x="180" y="129" as="sourcePoint" />
            <mxPoint x="230" y="79" as="targetPoint" />
          </mxGeometry>
        </mxCell>
        <mxCell id="teTgMuj66uehlwTVFIN7-2" value="" style="endArrow=classic;html=1;exitX=0.5;exitY=1;exitDx=0;exitDy=0;entryX=0.5;entryY=0;entryDx=0;entryDy=0;" parent="v2xxQM3PYK4Z-_NolJKh-7" source="v2xxQM3PYK4Z-_NolJKh-13" edge="1" target="teTgMuj66uehlwTVFIN7-5">
          <mxGeometry width="50" height="50" relative="1" as="geometry">
            <mxPoint x="180" y="209" as="sourcePoint" />
            <mxPoint x="130" y="268.9999999999999" as="targetPoint" />
          </mxGeometry>
        </mxCell>
        <mxCell id="teTgMuj66uehlwTVFIN7-5" value="&lt;p style=&quot;line-height: 140%&quot;&gt;autoCheck() 실행, 데이터를 측정&lt;/p&gt;" style="rounded=1;whiteSpace=wrap;html=1;" parent="v2xxQM3PYK4Z-_NolJKh-7" vertex="1">
          <mxGeometry x="62" y="268" width="160" height="71" as="geometry" />
        </mxCell>
        <mxCell id="teTgMuj66uehlwTVFIN7-7" value="&lt;p style=&quot;line-height: 140%&quot;&gt;측정 값을 lightSetting과 waterSetting에 저장&lt;/p&gt;" style="rounded=1;whiteSpace=wrap;html=1;" parent="v2xxQM3PYK4Z-_NolJKh-7" vertex="1">
          <mxGeometry x="62" y="390" width="160" height="71" as="geometry" />
        </mxCell>
        <mxCell id="teTgMuj66uehlwTVFIN7-9" value="&lt;p style=&quot;line-height: 140%&quot;&gt;측정된 Lux에 따라 전구 밝기 decrease 또는 increase&lt;/p&gt;" style="rounded=1;whiteSpace=wrap;html=1;" parent="v2xxQM3PYK4Z-_NolJKh-7" vertex="1">
          <mxGeometry x="62" y="521" width="160" height="71" as="geometry" />
        </mxCell>
        <mxCell id="teTgMuj66uehlwTVFIN7-10" value="" style="endArrow=classic;html=1;exitX=0.5;exitY=1;exitDx=0;exitDy=0;" parent="v2xxQM3PYK4Z-_NolJKh-7" source="teTgMuj66uehlwTVFIN7-7" target="teTgMuj66uehlwTVFIN7-9" edge="1">
          <mxGeometry width="50" height="50" relative="1" as="geometry">
            <mxPoint x="290" y="809" as="sourcePoint" />
            <mxPoint x="340" y="759" as="targetPoint" />
          </mxGeometry>
        </mxCell>
        <mxCell id="teTgMuj66uehlwTVFIN7-11" value="&lt;p style=&quot;line-height: 140%&quot;&gt;측정된 습도에 따라 펌프 ON 또는 OFF&lt;/p&gt;" style="rounded=1;whiteSpace=wrap;html=1;" parent="v2xxQM3PYK4Z-_NolJKh-7" vertex="1">
          <mxGeometry x="62" y="643.5" width="160" height="71" as="geometry" />
        </mxCell>
        <mxCell id="teTgMuj66uehlwTVFIN7-12" value="" style="endArrow=classic;html=1;exitX=0.5;exitY=1;exitDx=0;exitDy=0;entryX=0.5;entryY=0;entryDx=0;entryDy=0;" parent="v2xxQM3PYK4Z-_NolJKh-7" source="teTgMuj66uehlwTVFIN7-9" target="teTgMuj66uehlwTVFIN7-11" edge="1">
          <mxGeometry width="50" height="50" relative="1" as="geometry">
            <mxPoint x="210" y="909" as="sourcePoint" />
            <mxPoint x="260" y="859" as="targetPoint" />
          </mxGeometry>
        </mxCell>
        <mxCell id="teTgMuj66uehlwTVFIN7-14" value="" style="endArrow=classic;html=1;exitX=0.5;exitY=1;exitDx=0;exitDy=0;entryX=0.5;entryY=0;entryDx=0;entryDy=0;" parent="v2xxQM3PYK4Z-_NolJKh-7" source="teTgMuj66uehlwTVFIN7-5" target="teTgMuj66uehlwTVFIN7-7" edge="1">
          <mxGeometry width="50" height="50" relative="1" as="geometry">
            <mxPoint x="250" y="549" as="sourcePoint" />
            <mxPoint x="300" y="499" as="targetPoint" />
          </mxGeometry>
        </mxCell>
        <mxCell id="teTgMuj66uehlwTVFIN7-15" value="바뀐 동작 상태를 서버에 저장" style="rounded=1;whiteSpace=wrap;html=1;" parent="v2xxQM3PYK4Z-_NolJKh-7" vertex="1">
          <mxGeometry x="62" y="765" width="160" height="71" as="geometry" />
        </mxCell>
        <mxCell id="teTgMuj66uehlwTVFIN7-16" value="" style="endArrow=classic;html=1;exitX=0.5;exitY=1;exitDx=0;exitDy=0;entryX=0.5;entryY=0;entryDx=0;entryDy=0;" parent="v2xxQM3PYK4Z-_NolJKh-7" source="teTgMuj66uehlwTVFIN7-11" target="teTgMuj66uehlwTVFIN7-15" edge="1">
          <mxGeometry width="50" height="50" relative="1" as="geometry">
            <mxPoint x="260" y="899" as="sourcePoint" />
            <mxPoint x="310" y="849" as="targetPoint" />
          </mxGeometry>
        </mxCell>
        <mxCell id="N0FYi-gbG7OxnuEO2crS-16" value="서버에서 JSON 파일을 읽어와 습도, 조명 설정 업데이트" style="rounded=1;whiteSpace=wrap;html=1;" vertex="1" parent="v2xxQM3PYK4Z-_NolJKh-7">
          <mxGeometry x="62" y="1133" width="160" height="71" as="geometry" />
        </mxCell>
        <mxCell id="N0FYi-gbG7OxnuEO2crS-17" value="" style="endArrow=classic;html=1;exitX=0.5;exitY=1;exitDx=0;exitDy=0;entryX=0.5;entryY=0;entryDx=0;entryDy=0;" edge="1" parent="v2xxQM3PYK4Z-_NolJKh-7" source="teTgMuj66uehlwTVFIN7-15" target="N0FYi-gbG7OxnuEO2crS-16">
          <mxGeometry width="50" height="50" relative="1" as="geometry">
            <mxPoint x="320" y="976" as="sourcePoint" />
            <mxPoint x="370" y="926" as="targetPoint" />
          </mxGeometry>
        </mxCell>
        <mxCell id="N0FYi-gbG7OxnuEO2crS-24" value="" style="endArrow=classic;html=1;" edge="1" parent="v2xxQM3PYK4Z-_NolJKh-7">
          <mxGeometry width="50" height="50" relative="1" as="geometry">
            <mxPoint x="63" y="1168" as="sourcePoint" />
            <mxPoint x="63" y="303" as="targetPoint" />
            <Array as="points">
              <mxPoint x="32" y="1168" />
              <mxPoint x="32" y="304" />
            </Array>
          </mxGeometry>
        </mxCell>
        <mxCell id="v2xxQM3PYK4Z-_NolJKh-8" value="Android" style="swimlane;startSize=30;fontSize=14;" parent="v2xxQM3PYK4Z-_NolJKh-1" vertex="1">
          <mxGeometry x="540" y="34" width="260" height="1246" as="geometry" />
        </mxCell>
        <mxCell id="v2xxQM3PYK4Z-_NolJKh-15" value="마지막 데이터를 기준으로 UI 그리기" style="rounded=1;whiteSpace=wrap;html=1;fontSize=12;" parent="v2xxQM3PYK4Z-_NolJKh-8" vertex="1">
          <mxGeometry x="50" y="49.5" width="150" height="60.5" as="geometry" />
        </mxCell>
        <mxCell id="teTgMuj66uehlwTVFIN7-29" value="새 데이터 저장 &amp;amp; UI 다시 그리기" style="rounded=1;whiteSpace=wrap;html=1;fontSize=12;" parent="v2xxQM3PYK4Z-_NolJKh-8" vertex="1">
          <mxGeometry x="51" y="1006" width="150" height="74" as="geometry" />
        </mxCell>
        <mxCell id="N0FYi-gbG7OxnuEO2crS-1" value="새 데이터 요청" style="rounded=1;whiteSpace=wrap;html=1;fontSize=12;" vertex="1" parent="v2xxQM3PYK4Z-_NolJKh-8">
          <mxGeometry x="51" y="884" width="150" height="74" as="geometry" />
        </mxCell>
        <mxCell id="N0FYi-gbG7OxnuEO2crS-4" value="" style="endArrow=classic;html=1;entryX=0.5;entryY=0;entryDx=0;entryDy=0;exitX=0.5;exitY=1;exitDx=0;exitDy=0;" edge="1" parent="v2xxQM3PYK4Z-_NolJKh-8" source="v2xxQM3PYK4Z-_NolJKh-15" target="N0FYi-gbG7OxnuEO2crS-1">
          <mxGeometry width="50" height="50" relative="1" as="geometry">
            <mxPoint x="-80" y="346" as="sourcePoint" />
            <mxPoint x="-30" y="296" as="targetPoint" />
          </mxGeometry>
        </mxCell>
        <mxCell id="N0FYi-gbG7OxnuEO2crS-8" value="" style="endArrow=classic;html=1;entryX=0.5;entryY=0;entryDx=0;entryDy=0;exitX=0.5;exitY=1;exitDx=0;exitDy=0;" edge="1" parent="v2xxQM3PYK4Z-_NolJKh-8" source="N0FYi-gbG7OxnuEO2crS-1" target="teTgMuj66uehlwTVFIN7-29">
          <mxGeometry width="50" height="50" relative="1" as="geometry">
            <mxPoint x="-10" y="1136" as="sourcePoint" />
            <mxPoint x="40" y="1086" as="targetPoint" />
          </mxGeometry>
        </mxCell>
        <mxCell id="N0FYi-gbG7OxnuEO2crS-9" value="사용자가 설정 변경 시, 이를 서버에 전송" style="rounded=1;whiteSpace=wrap;html=1;fontSize=12;" vertex="1" parent="v2xxQM3PYK4Z-_NolJKh-8">
          <mxGeometry x="51" y="1131" width="150" height="74" as="geometry" />
        </mxCell>
        <mxCell id="N0FYi-gbG7OxnuEO2crS-10" value="" style="endArrow=classic;html=1;entryX=0.5;entryY=0;entryDx=0;entryDy=0;exitX=0.5;exitY=1;exitDx=0;exitDy=0;" edge="1" parent="v2xxQM3PYK4Z-_NolJKh-8" source="teTgMuj66uehlwTVFIN7-29" target="N0FYi-gbG7OxnuEO2crS-9">
          <mxGeometry width="50" height="50" relative="1" as="geometry">
            <mxPoint x="40" y="1186" as="sourcePoint" />
            <mxPoint x="90" y="1136" as="targetPoint" />
          </mxGeometry>
        </mxCell>
        <mxCell id="teTgMuj66uehlwTVFIN7-18" value="" style="endArrow=classic;html=1;exitX=1;exitY=0.5;exitDx=0;exitDy=0;entryX=0;entryY=0.5;entryDx=0;entryDy=0;" parent="v2xxQM3PYK4Z-_NolJKh-1" source="teTgMuj66uehlwTVFIN7-15" target="teTgMuj66uehlwTVFIN7-17" edge="1">
          <mxGeometry width="50" height="50" relative="1" as="geometry">
            <mxPoint x="320" y="900" as="sourcePoint" />
            <mxPoint x="370" y="850" as="targetPoint" />
          </mxGeometry>
        </mxCell>
        <mxCell id="teTgMuj66uehlwTVFIN7-19" value="File I/O" style="edgeLabel;html=1;align=center;verticalAlign=middle;resizable=0;points=[];fontSize=12;" parent="teTgMuj66uehlwTVFIN7-18" vertex="1" connectable="0">
          <mxGeometry x="0.4" y="-1" relative="1" as="geometry">
            <mxPoint x="-17" as="offset" />
          </mxGeometry>
        </mxCell>
        <mxCell id="N0FYi-gbG7OxnuEO2crS-12" value="" style="endArrow=classic;startArrow=none;html=1;entryX=0;entryY=0.5;entryDx=0;entryDy=0;exitX=1;exitY=0.5;exitDx=0;exitDy=0;" edge="1" parent="v2xxQM3PYK4Z-_NolJKh-1" source="N0FYi-gbG7OxnuEO2crS-13" target="N0FYi-gbG7OxnuEO2crS-9">
          <mxGeometry width="50" height="50" relative="1" as="geometry">
            <mxPoint x="350" y="1170" as="sourcePoint" />
            <mxPoint x="400" y="1120" as="targetPoint" />
          </mxGeometry>
        </mxCell>
        <mxCell id="N0FYi-gbG7OxnuEO2crS-13" value="HTTP GET with Parameter" style="text;html=1;strokeColor=none;fillColor=none;align=center;verticalAlign=middle;whiteSpace=wrap;rounded=0;labelBackgroundColor=#FFFFFF;" vertex="1" parent="v2xxQM3PYK4Z-_NolJKh-1">
          <mxGeometry x="512" y="1192" width="60" height="20" as="geometry" />
        </mxCell>
        <mxCell id="N0FYi-gbG7OxnuEO2crS-14" value="" style="endArrow=none;startArrow=classic;html=1;entryX=0;entryY=0.5;entryDx=0;entryDy=0;exitX=1;exitY=0.5;exitDx=0;exitDy=0;" edge="1" parent="v2xxQM3PYK4Z-_NolJKh-1" source="N0FYi-gbG7OxnuEO2crS-11" target="N0FYi-gbG7OxnuEO2crS-13">
          <mxGeometry width="50" height="50" relative="1" as="geometry">
            <mxPoint x="470" y="1202" as="sourcePoint" />
            <mxPoint x="571" y="1202" as="targetPoint" />
          </mxGeometry>
        </mxCell>
        <mxCell id="N0FYi-gbG7OxnuEO2crS-21" value="" style="endArrow=classic;html=1;exitX=0;exitY=0.5;exitDx=0;exitDy=0;entryX=1;entryY=0.5;entryDx=0;entryDy=0;" edge="1" parent="v2xxQM3PYK4Z-_NolJKh-1" source="N0FYi-gbG7OxnuEO2crS-11" target="N0FYi-gbG7OxnuEO2crS-16">
          <mxGeometry width="50" height="50" relative="1" as="geometry">
            <mxPoint x="280" y="1290" as="sourcePoint" />
            <mxPoint x="210" y="1205" as="targetPoint" />
          </mxGeometry>
        </mxCell>
        <mxCell id="N0FYi-gbG7OxnuEO2crS-3" value="HTTP GET Request" style="text;html=1;align=center;verticalAlign=middle;whiteSpace=wrap;rounded=0;fillColor=#FFFFFF;labelBackgroundColor=#FFFFFF;" vertex="1" parent="1">
          <mxGeometry x="549" y="943" width="40" height="24" as="geometry" />
        </mxCell>
        <mxCell id="N0FYi-gbG7OxnuEO2crS-20" value="" style="endArrow=classic;html=1;exitX=1;exitY=0.5;exitDx=0;exitDy=0;" edge="1" parent="1" source="N0FYi-gbG7OxnuEO2crS-9">
          <mxGeometry width="50" height="50" relative="1" as="geometry">
            <mxPoint x="760" y="1202.0000000000005" as="sourcePoint" />
            <mxPoint x="769" y="110" as="targetPoint" />
            <Array as="points">
              <mxPoint x="800" y="1202" />
              <mxPoint x="800" y="110" />
            </Array>
          </mxGeometry>
        </mxCell>
        <mxCell id="N0FYi-gbG7OxnuEO2crS-23" value="File I/O" style="text;html=1;strokeColor=none;fillColor=none;align=center;verticalAlign=middle;whiteSpace=wrap;rounded=0;labelBackgroundColor=#FFFFFF;" vertex="1" parent="1">
          <mxGeometry x="275" y="1192" width="60" height="20" as="geometry" />
        </mxCell>
      </root>
    </mxGraphModel>
  </diagram>
</mxfile>
